<svg fill="none" height="512" viewBox="0 0 24 24" width="512" xmlns="http://www.w3.org/2000/svg"><g clip-rule="evenodd" fill-rule="evenodd"><path d="m12 1.25c-5.93706 0-10.75 4.81294-10.75 10.75 0 5.9371 4.81294 10.75 10.75 10.75 5.9371 0 10.75-4.8129 10.75-10.75 0-5.93706-4.8129-10.75-10.75-10.75z" fill="#ffd24b"/><path d="m9 6.25c.41421 0 .75.33579.75.75v2c0 .41421-.33579.75-.75.75s-.75-.33579-.75-.75v-2c0-.41421.33579-.75.75-.75z" fill="#354d58"/><path d="m15 6.25c.4142 0 .75.33579.75.75v2c0 .41421-.3358.75-.75.75s-.75-.33579-.75-.75v-2c0-.41421.3358-.75.75-.75z" fill="#354d58"/><path d="m8 10.75c-1.51878 0-2.75 1.2312-2.75 2.75v2.7108c0 .7226.32099 1.408.87617 1.8706 3.40259 2.8355 8.34503 2.8355 11.74763 0 .5552-.4626.8762-1.148.8762-1.8706v-2.7108c0-1.5188-1.2312-2.75-2.75-2.75h-4z" fill="#fafafa"/><path d="m8.75 14c0-.4142.33579-.75.75-.75h5c.4142 0 .75.3358.75.75s-.3358.75-.75.75h-5c-.41421 0-.75-.3358-.75-.75z" fill="#bcbcbc"/><path d="m8.75 16.5c0-.4142.33579-.75.75-.75h5c.4142 0 .75.3358.75.75s-.3358.75-.75.75h-5c-.41421 0-.75-.3358-.75-.75z" fill="#bcbcbc"/></g><path d="m9.75 7c0-.41421-.33579-.75-.75-.75s-.75.33579-.75.75v2c0 .41421.33579.75.75.75s.75-.33579.75-.75z" fill="#000"/><path d="m15 6.25c.4142 0 .75.33579.75.75v2c0 .41421-.3358.75-.75.75s-.75-.33579-.75-.75v-2c0-.41421.3358-.75.75-.75z" fill="#000"/><path d="m8.75 14c0-.4142.33579-.75.75-.75h5c.4142 0 .75.3358.75.75s-.3358.75-.75.75h-5c-.41421 0-.75-.3358-.75-.75z" fill="#000"/><path d="m9.5 15.75c-.41421 0-.75.3358-.75.75s.33579.75.75.75h5c.4142 0 .75-.3358.75-.75s-.3358-.75-.75-.75z" fill="#000"/><path clip-rule="evenodd" d="m12 1.25c-5.93706 0-10.75 4.81294-10.75 10.75 0 5.9371 4.81294 10.75 10.75 10.75 5.9371 0 10.75-4.8129 10.75-10.75 0-5.93706-4.8129-10.75-10.75-10.75zm-9.25 10.75c0-.132.00276-.2633.00823-.3939l2.49403 1.7815c-.0015.0373-.00226.0747-.00226.1124v2.7108c0 .4161.10643.8198.30272 1.1758l-.60238.6024c-1.3723-1.6137-2.20034-3.7047-2.20034-5.989zm3.0088-.094-2.77491-1.98205c.94227-4.10901 4.62126-7.17395 9.01611-7.17395 4.3948 0 8.0738 3.06494 9.0161 7.17395l-2.7749 1.98205c-.4985-.6997-1.3166-1.156-2.2412-1.156h-8c-.92462 0-1.74266.4563-2.2412 1.156zm12.9889 1.4816c.0015.0373.0023.0747.0023.1124v2.7108c0 .4161-.1064.8198-.3027 1.1758l.6024.6024c1.3723-1.6137 2.2003-3.7047 2.2003-5.989 0-.132-.0028-.2633-.0082-.3939zm-12.14207 5.0674-.59463.5947c1.61375 1.3723 3.70467 2.2003 5.989 2.2003 2.2843 0 4.3753-.828 5.989-2.2003l-.5946-.5947c-3.2121 2.3374-7.57668 2.3374-10.78877 0zm.14437-4.955c0-.6904.55964-1.25 1.25-1.25h8c.6904 0 1.25.5596 1.25 1.25v2.7108c0 .2775-.1233.5406-.3364.7183-2.8464 2.3719-6.98083 2.3719-9.82716 0-.21318-.1777-.33644-.4408-.33644-.7183z" fill="#000" fill-rule="evenodd"/></svg>