<svg className="text-logo" viewBox="0 0 3300.000000 936.000000">

<g transform="translate(0.000000,936.000000) scale(0.100000,-0.100000)"
fill={this.props.color}>
<path d="M1710 9337 c-99 -36 -241 -112 -385 -209 -629 -422 -1119 -1148
-1292 -1913 -34 -154 -43 -436 -18 -586 22 -137 64 -263 124 -382 66 -129 126
-212 239 -329 192 -198 444 -338 617 -342 75 -1 97 13 115 78 17 60 3 103 -76
232 -125 205 -182 348 -220 559 -22 122 -30 449 -14 601 62 618 325 1229 691
1609 54 55 111 108 127 117 61 36 57 124 54 -1456 -4 -1887 -19 -3749 -32
-3906 -24 -312 -60 -507 -144 -786 -64 -211 -72 -259 -56 -308 14 -44 35 -56
98 -56 188 0 504 230 682 497 204 305 315 672 350 1163 20 282 32 1762 28
3430 l-4 1675 -22 41 c-60 115 -263 229 -497 279 -39 8 -121 15 -185 15 -94 0
-127 -5 -180 -23z"/>
<path d="M10800 9338 c-61 -31 -88 -86 -100 -204 -13 -126 -29 -460 -36 -802
l-7 -293 -101 6 c-152 8 -566 25 -693 27 -112 2 -113 2 -144 -27 -38 -36 -100
-165 -123 -255 -23 -88 -31 -234 -17 -287 6 -24 22 -55 35 -69 l23 -27 324 -9
c178 -4 398 -11 488 -14 l164 -6 -7 -222 c-3 -121 -7 -579 -8 -1016 l-1 -795
-32 -130 c-76 -307 -232 -615 -438 -870 -91 -112 -212 -228 -203 -195 4 14 10
90 13 170 4 112 2 165 -11 233 -44 233 -158 437 -356 636 -114 115 -197 182
-657 528 l-351 265 61 76 c169 210 331 517 372 705 24 110 17 254 -15 322 -50
102 -133 157 -280 182 -107 19 -256 12 -360 -17 -332 -93 -601 -390 -681 -753
-29 -132 -23 -300 15 -412 31 -91 87 -191 152 -271 l45 -55 -87 -167 c-129
-248 -238 -445 -420 -759 -308 -532 -423 -707 -557 -849 -165 -175 -264 -168
-315 22 -33 123 -42 243 -49 599 -6 336 2 670 37 1521 13 320 16 489 10 528
-28 173 -149 295 -440 443 -162 83 -229 103 -344 103 -113 0 -215 -24 -317
-75 -277 -139 -546 -478 -774 -973 -85 -187 -135 -315 -264 -672 -60 -168
-120 -334 -135 -370 l-25 -65 5 960 c7 1110 18 998 -104 1059 -174 88 -384
140 -538 134 -82 -3 -95 -6 -118 -27 -15 -14 -31 -41 -36 -60 -14 -52 -33
-3216 -20 -3447 14 -266 46 -396 124 -503 80 -108 163 -135 421 -136 177 0
181 1 236 28 67 32 74 47 89 172 30 251 65 434 141 739 223 892 499 1579 843
2101 147 223 326 433 359 422 20 -6 19 -126 -8 -733 -44 -1011 -50 -1263 -37
-1535 13 -275 32 -441 69 -609 76 -346 213 -529 430 -575 238 -51 462 33 741
275 151 131 370 396 524 635 65 100 565 933 773 1287 61 103 114 187 118 187
9 1 309 -271 460 -419 224 -216 349 -406 408 -616 29 -103 31 -278 5 -373 -39
-143 -127 -263 -232 -316 -74 -38 -199 -46 -290 -20 -91 26 -218 97 -344 191
-138 103 -198 134 -262 134 -63 0 -92 -13 -155 -66 -144 -123 -261 -354 -251
-495 7 -98 74 -167 246 -253 145 -73 401 -138 651 -167 131 -15 467 -6 576 14
494 93 865 334 1190 772 123 166 197 289 310 519 112 225 108 222 120 101 30
-290 121 -628 228 -840 89 -178 230 -345 367 -433 168 -109 428 -159 606 -117
318 75 668 458 869 951 l42 103 23 -82 c72 -265 214 -522 380 -688 190 -190
404 -285 670 -296 470 -19 895 239 1192 726 50 81 58 91 58 66 0 -17 11 -72
25 -124 80 -298 293 -527 583 -625 317 -108 678 -6 902 255 77 89 115 145 176
262 l51 99 34 -59 c95 -168 214 -310 339 -405 85 -65 244 -142 350 -169 118
-30 304 -37 430 -15 183 32 371 111 525 221 101 72 248 217 323 317 l57 78 9
-191 c4 -105 6 -191 5 -193 -20 -14 -768 -705 -892 -823 -396 -378 -624 -657
-752 -918 -97 -199 -127 -322 -127 -530 -1 -320 106 -557 333 -738 209 -167
484 -257 788 -257 166 0 265 15 397 60 292 99 592 354 750 636 148 265 260
725 305 1254 8 95 10 335 5 810 l-7 675 90 108 c273 327 523 678 734 1030 276
458 552 1037 712 1489 l43 123 78 6 c44 4 185 9 315 13 214 6 238 5 254 -10
11 -12 14 -25 10 -43 -4 -14 -22 -96 -41 -181 -155 -709 -184 -1382 -83 -1885
43 -215 140 -449 250 -605 225 -319 630 -510 949 -446 165 33 298 106 438 240
96 92 163 179 222 289 l43 79 20 -34 c56 -94 133 -202 187 -260 319 -349 816
-426 1272 -197 257 129 456 324 623 610 l49 83 11 -54 c78 -386 361 -679 727
-754 143 -29 322 -16 448 34 177 70 351 255 469 499 39 80 40 82 45 49 3 -18
8 -87 11 -153 10 -177 28 -272 60 -305 34 -35 138 -84 241 -112 67 -18 107
-21 264 -22 281 -1 362 21 402 111 25 56 32 154 48 623 19 598 51 835 166
1260 102 379 196 638 325 896 101 204 156 273 173 217 3 -10 10 -151 16 -313
34 -929 125 -1749 231 -2072 34 -106 94 -202 172 -275 108 -102 220 -137 417
-131 103 4 134 8 178 27 55 25 109 77 116 114 3 12 7 105 10 207 14 497 145
1198 326 1740 112 337 293 781 311 763 4 -4 3 -172 -2 -373 -17 -576 8 -1213
62 -1585 84 -590 298 -957 654 -1126 128 -60 203 -79 340 -86 477 -23 789 344
915 1076 28 160 26 335 -5 396 -55 110 -182 112 -244 3 -29 -50 -38 -81 -92
-303 -89 -373 -193 -559 -333 -600 -147 -43 -266 49 -360 277 -66 160 -104
366 -127 683 -18 237 -17 1147 1 1580 8 193 15 411 15 485 0 145 -7 172 -73
258 -66 86 -262 195 -492 273 -255 86 -411 61 -517 -83 -78 -107 -312 -738
-449 -1211 -96 -332 -176 -682 -205 -892 -23 -164 -26 -150 -58 240 -30 354
-40 571 -51 1050 -5 244 -14 454 -21 485 -27 130 -129 263 -253 333 -75 42
-213 93 -299 112 -109 24 -265 18 -325 -13 -132 -69 -252 -332 -537 -1182
l-164 -485 0 718 c-1 790 1 757 -63 824 -36 37 -71 50 -248 93 -352 84 -465
79 -511 -24 -18 -42 -20 -81 -29 -668 -5 -343 -10 -903 -10 -1246 0 -680 2
-648 -62 -871 -107 -375 -287 -675 -454 -757 -99 -49 -230 -22 -304 63 -100
114 -154 341 -181 762 -15 237 -7 1197 16 1929 9 299 14 554 11 568 -17 67
-134 143 -291 189 -205 59 -398 70 -482 27 -71 -37 -87 -71 -93 -192 l-5 -105
-37 50 c-20 28 -74 86 -120 131 -138 134 -265 208 -427 251 -82 22 -118 26
-251 27 -189 1 -284 -20 -435 -93 -203 -100 -344 -233 -510 -482 -270 -403
-410 -894 -447 -1566 -17 -317 9 -723 61 -952 8 -37 5 -58 -19 -140 -70 -235
-173 -390 -304 -459 -44 -23 -63 -27 -136 -27 -75 0 -91 3 -132 27 -288 170
-415 867 -307 1683 26 192 52 330 146 750 68 304 76 351 76 445 0 122 -19 183
-81 265 -89 117 -194 160 -387 158 -102 -1 -153 -8 -335 -46 -118 -25 -298
-60 -400 -76 -102 -17 -199 -33 -216 -36 l-30 -5 13 72 c19 107 19 262 0 328
-46 156 -169 245 -357 257 -106 7 -228 -16 -320 -59 -76 -36 -186 -143 -238
-230 -76 -128 -123 -350 -103 -483 24 -162 112 -308 238 -396 l22 -15 -29
-114 c-104 -396 -294 -870 -495 -1241 -136 -249 -434 -729 -453 -729 -9 0 7
2173 18 2460 6 151 8 294 5 318 -5 32 -16 53 -44 81 -68 68 -283 141 -484 163
-128 14 -200 3 -262 -40 -60 -42 -78 -81 -83 -180 l-5 -84 -25 33 c-55 71
-160 174 -237 231 -104 79 -197 124 -314 156 -83 22 -118 25 -256 26 -195 1
-275 -17 -440 -98 -247 -122 -449 -346 -620 -686 -234 -467 -335 -959 -335
-1629 0 -241 10 -395 35 -557 14 -88 14 -93 -10 -181 -27 -102 -87 -247 -137
-330 -48 -82 -151 -188 -211 -217 -120 -61 -270 -14 -351 108 -74 112 -119
280 -152 567 -25 222 -30 956 -10 1599 31 1024 31 1032 13 1067 -9 17 -31 43
-48 57 -109 92 -406 173 -597 164 -71 -4 -88 -8 -124 -34 -65 -45 -82 -83 -88
-193 l-5 -93 -33 46 c-48 67 -155 173 -236 233 -95 70 -196 119 -313 150 -86
23 -117 26 -258 26 -176 0 -243 -13 -388 -73 -226 -94 -443 -309 -627 -620
-230 -389 -345 -864 -385 -1595 -11 -207 -18 -266 -39 -340 -114 -415 -372
-816 -594 -928 -98 -49 -148 -55 -207 -27 -136 66 -228 306 -277 720 -24 201
-12 1212 27 2240 25 659 27 702 39 705 6 2 261 8 567 12 537 8 558 9 579 28
117 104 182 433 101 514 -29 29 -239 52 -626 66 -188 7 -607 34 -612 39 -2 2
3 165 11 363 32 744 32 724 5 757 -64 81 -468 210 -694 222 -91 5 -104 4 -145
-18z m3602 -2749 c240 -51 398 -284 467 -687 74 -439 37 -1119 -85 -1539 -85
-293 -192 -491 -342 -635 -133 -127 -266 -176 -393 -144 -242 61 -407 380
-471 911 -17 143 -17 648 0 815 33 323 88 584 162 774 145 370 395 561 662
505z m3943 1 c351 -57 509 -515 474 -1376 -13 -331 -54 -606 -130 -868 -85
-298 -181 -479 -329 -619 -89 -86 -175 -133 -273 -150 -188 -32 -365 110 -468
376 -141 365 -178 940 -98 1502 84 593 297 1000 577 1105 97 37 159 45 247 30z
m6837 -1 c250 -53 404 -299 474 -759 22 -145 30 -651 14 -848 -34 -417 -144
-817 -290 -1058 -143 -236 -343 -371 -516 -349 -244 30 -426 336 -489 820 -36
279 -36 719 0 1043 54 483 161 789 341 981 84 89 162 139 253 163 78 20 141
22 213 7z m-6272 -4670 c-27 -591 -117 -1025 -261 -1265 -45 -75 -144 -165
-221 -203 -346 -168 -678 31 -678 407 0 217 106 499 295 782 169 255 382 504
744 873 l126 127 3 -242 c2 -134 -2 -349 -8 -479z"/>
</g>
</svg>
